<?xml version="1.0" standalone="no"?>
<!DOCTYPE svg PUBLIC "-//W3C//DTD SVG 20010904//EN"
 "http://www.w3.org/TR/2001/REC-SVG-20010904/DTD/svg10.dtd">
<svg version="1.0" xmlns="http://www.w3.org/2000/svg"
 width="16.000000pt" height="16.000000pt" viewBox="0 0 16.000000 16.000000"
 preserveAspectRatio="xMidYMid meet">
<metadata>
Created by potrace 1.11, written by Peter Selinger 2001-2013
</metadata>
<g transform="translate(0.000000,16.000000) scale(0.004000,-0.004000)"
fill="#000000" stroke="none">
<path d="M318 2948 l-3 -53 -50 0 -50 0 -3 -52 -3 -52 -52 -3 -52 -3 -3 -52
-3 -53 -50 0 -49 0 0 -840 0 -840 1892 2 1891 3 1 50 1 50 53 3 52 3 0 55 0
54 55 0 55 0 0 890 0 890 -1839 0 -1840 0 -3 -52z m3462 -108 l0 -50 -55 0
-55 0 0 -55 0 -55 -1725 0 -1725 0 0 49 0 50 53 3 52 3 -3 42 c-2 23 -1 47 3
53 4 7 550 10 1731 10 l1724 0 0 -50z m108 -837 l-3 -778 -50 -1 -50 -1 -3
-51 -3 -52 -50 0 -49 0 0 775 0 775 50 0 c53 0 53 1 50 57 -2 46 5 53 61 53
l49 0 -2 -777z m-3248 -63 l0 -60 60 0 60 0 0 -60 0 -60 -60 0 -60 0 0 60 0
60 -190 0 -190 0 0 -125 0 -125 190 0 191 0 -3 -62 -3 -63 -187 -3 -188 -2 0
-120 0 -120 -60 0 -60 0 0 310 0 310 60 0 60 0 0 60 0 60 190 0 190 0 0 -60z
m740 -190 l0 -250 60 0 60 0 0 -60 0 -60 -60 0 -60 0 0 -125 0 -125 -60 0 -59
0 -3 123 -3 122 -187 3 -188 2 0 125 0 125 60 0 59 0 3 -62 3 -63 123 -3 122
-3 0 191 0 190 -60 0 -60 0 0 -125 0 -125 -60 0 -60 0 0 125 0 125 60 0 60 0
0 60 0 60 125 0 125 0 0 -250z m370 65 l0 -185 65 0 65 0 0 60 0 60 60 0 60 0
0 -60 0 -60 -60 0 -60 0 0 -60 0 -59 -62 -3 -63 -3 -3 -187 -2 -188 -60 0 -60
0 0 435 0 435 60 0 60 0 0 -185z m500 125 l0 -60 -60 0 -60 0 0 -60 0 -60 -60
0 -60 0 0 60 0 60 60 0 60 0 0 60 0 60 60 0 60 0 0 -60z m-1490 -560 l0 -120
-60 0 -60 0 0 120 0 120 60 0 60 0 0 -120z m1240 60 l0 -60 -60 0 -60 0 0 60
0 60 60 0 60 0 0 -60z m130 -120 l0 -60 -60 0 -60 0 0 60 0 60 60 0 60 0 0
-60z m-1490 -130 l0 -60 -190 0 -190 0 0 60 0 60 190 0 190 0 0 -60z m1610 0
l0 -60 -60 0 -60 0 0 60 0 60 60 0 60 0 0 -60z"/>
</g>
</svg>
